<svg id="LOGO" xmlns="http://www.w3.org/2000/svg" viewBox="0 0 875.86 144"><defs><style>.cls-1{fill:#0078d7;}</style></defs><title>edge</title><g id="Page-1"><path id="Microsoft-Edge" class="cls-1" d="M104.34,109.69h-12V41q0-8.13,1-19.83C91.93,25.79,90.91,29.1,90,31.1L55.13,109.69H49.28l-34.94-78a58,58,0,0,1-3.07-10.49c.09,4.09.28,10.75.28,20v68.54H0V7.42H15.83L47.22,78.74A90.61,90.61,0,0,1,51.85,91h.5q3.57-9.84,4.92-12.56l32-71h15Zm33.8-99.21a7.2,7.2,0,0,1-2.29,5.46A7.92,7.92,0,0,1,125,16a7.28,7.28,0,0,1-2.21-5.53A7.39,7.39,0,0,1,125,5.17a7.27,7.27,0,0,1,5.45-2.25,7.46,7.46,0,0,1,5.5,2.22A7.28,7.28,0,0,1,138.14,10.48Zm-2,99.21h-11.7v-73h11.7Zm67.74-3.35q-8.49,5.14-20,5.14a35.23,35.23,0,0,1-17.94-4.6,31.78,31.78,0,0,1-12.37-13A40,40,0,0,1,149.11,75q0-18.12,10.37-29.1t27.64-11A36.88,36.88,0,0,1,204,38.59v12a29.88,29.88,0,0,0-17.4-5.71q-11.34,0-18.44,8.1t-7.09,20.93q0,12.77,6.74,20.18t18.08,7.42a29.54,29.54,0,0,0,18-6.27ZM254.51,48.5q-3.15-2.36-8.92-2.35-7.77,0-12.62,7.31t-4.85,19v37.23h-11.7v-73h11.7V51.71h.28a25.82,25.82,0,0,1,7.49-12,17.26,17.26,0,0,1,11.63-4.38,19.27,19.27,0,0,1,7,1Zm72,24.39q0,17.4-9.88,28t-26.5,10.59q-16.18,0-25.85-10.31T254.63,74q0-18.11,9.92-28.63t27.31-10.52q16.27,0,25.47,10.16T326.53,72.89Zm-12,.43q0-13.77-6.09-21.11T291,44.86q-11.26,0-17.83,7.53T266.62,73.6q0,13.13,6.59,20.51t17.8,7.38q11.42,0,17.47-7.27T314.54,73.32Zm64.82,16.83a18.88,18.88,0,0,1-7.31,15.41q-7.31,5.91-19.43,5.92a36,36,0,0,1-18.12-4.43V94.5a29.46,29.46,0,0,0,19,7q13.9,0,13.91-10.2a8.92,8.92,0,0,0-2.71-6.74q-2.71-2.6-12.34-7-9.7-4.14-13.69-8.88t-4-12.59a18.9,18.9,0,0,1,7.28-15.12q7.27-6.06,18.47-6.06A35.08,35.08,0,0,1,376,38.3V50.07a27.32,27.32,0,0,0-16.55-5.21,14.34,14.34,0,0,0-9.3,2.85,9,9,0,0,0-3.53,7.35c0,3.23.9,5.72,2.71,7.45s5.53,3.8,11.19,6.17Q371,73.1,375.15,78A17.89,17.89,0,0,1,379.36,90.15Zm78.3-17.26q0,17.4-9.88,28t-26.49,10.59q-16.2,0-25.86-10.31T385.77,74q0-18.11,9.91-28.63T423,34.88q16.26,0,25.46,10.16T457.66,72.89ZM484,36.66H515V18.83l11.7-3.78V36.66h18.4v9.91h-18.4V87.8q0,7.35,2.5,10.45t8.34,3.1A12.49,12.49,0,0,0,545.07,99v10q-4.2,2.35-11,2.35Q515,111.33,515,89.79V46.57H484v63.12H472.34V46.57H459.93V36.66h12.41V24.82q0-11.13,6.56-18A22.1,22.1,0,0,1,495.59,0a23.12,23.12,0,0,1,8.49,1.28V11.84a15.67,15.67,0,0,0-7.78-1.93Q484,9.91,484,25.39ZM445.68,73.32q0-13.77-6.1-21.11t-17.44-7.35q-11.26,0-17.83,7.53T397.75,73.6q0,13.13,6.6,20.51t17.79,7.38q11.42,0,17.48-7.27T445.68,73.32Zm194.51,36.37H586V7.42h51.85V18.26H598v34h36.95V63.12H598V98.85h42.23Zm74.73,0h-11.7V97.28h-.28q-8.13,14.2-25.11,14.2-13.83,0-22-10T647.59,75q0-18.12,9.09-29.1t24.36-11q15,0,21.9,11.84h.28V1.57h11.7Zm-11.7-33V65.9a20.35,20.35,0,0,0-6-15.05,20,20,0,0,0-14.65-6q-10.56,0-16.76,7.81t-6.21,21.65q0,12.56,5.85,19.86t15.76,7.31a20.25,20.25,0,0,0,15.84-7Q703.21,87.51,703.22,76.67Zm92,27.18q0,40.16-38.51,40.15A53,53,0,0,1,733,138.94v-11.7q12.27,6.84,23.46,6.85,27,0,27-28.6V97.43h-.29q-8.34,14-25.11,14a28.14,28.14,0,0,1-26.46-17,44.72,44.72,0,0,1-3.78-18.9q0-18.69,9.1-29.67t24.35-11q14.77,0,21.9,11.84h.29V36.66h11.69ZM783.52,76.67V65.9A20.41,20.41,0,0,0,777.45,51,19.67,19.67,0,0,0,763,44.86q-10.9,0-17,7.92t-6.09,22q0,12,5.84,19.33a19,19,0,0,0,15.62,7.34,20.45,20.45,0,0,0,16-6.95Q783.52,87.58,783.52,76.67Zm88.35-.57H820.3q.29,12.35,6.53,18.87t17.29,6.52a35.76,35.76,0,0,0,22.61-8v10.92q-9.56,7-25.39,7.06-15.62,0-24.39-10.1t-8.77-27.92a44.41,44.41,0,0,1,4.38-19.79A33.56,33.56,0,0,1,824.65,39.8a31.15,31.15,0,0,1,17.12-4.92q14.19,0,22.15,9.23t8,25.86Zm-12-9.91q-.15-10.12-4.89-15.73t-13.37-5.6a18.84,18.84,0,0,0-13.91,5.85q-5.78,5.85-7.27,15.48Z"/></g></svg>