<?xml version="1.0" encoding="utf-8"?>
<!-- Generator: Adobe Illustrator 21.0.0, SVG Export Plug-In . SVG Version: 6.00 Build 0)  -->
<svg version="1.1" id="Layer_1" xmlns="http://www.w3.org/2000/svg" xmlns:xlink="http://www.w3.org/1999/xlink" x="0px" y="0px"
	 viewBox="0 0 70 70" style="enable-background:new 0 0 70 70;" xml:space="preserve">
<style type="text/css">
	.st0{fill:#0078D7;}
</style>
<ellipse class="st0" cx="23.1" cy="34.7" rx="3.2" ry="5.1"/>
<ellipse class="st0" cx="44.9" cy="34.7" rx="3.2" ry="5.1"/>
<path class="st0" d="M65.1,32.4l-4.2-6.9l2.6-2.1c0.8-0.7,0.9-1.9,0.2-2.7c-0.7-0.8-1.9-0.9-2.7-0.2l-1.3,1.1v-11
	c0.1-2.1-1.2-4.1-3.2-4.9c-2-0.8-4.3-0.4-5.8,1.2L41,16.7h-14l-9.7-10c-1.5-1.5-3.8-2-5.7-1.1c-2,0.8-3.2,2.7-3.2,4.9v12.7H7.8
	c-1.1,0-1.9,0.9-1.9,1.9S6.7,27,7.8,27h0.6v10.9l-3.8,3.8v0.5c0,12.1,9.8,21.9,21.9,21.9l0,0c2.8,0,5.5-1.2,7.5-3.2
	c2,2,4.7,3.2,7.5,3.2l0,0c12.1,0,21.9-9.8,21.9-21.9v-0.5l-3.8-3.8v-7.2l2.2,3.6c0.5,0.9,1.7,1.2,2.6,0.7
	C65.4,34.5,65.7,33.3,65.1,32.4L65.1,32.4L65.1,32.4z M10.9,10.5c0-1.5,1.2-2.7,2.7-2.7c0.7,0,1.4,0.3,1.9,0.8L26,19.3h16.1
	L52.5,8.6c1.1-1.1,2.8-1.1,3.8,0c0.5,0.5,0.8,1.2,0.8,1.9v12.6H10.9V10.5z M41.7,61.6c-2.6,0-5.1-1.3-6.7-3.4l-1-1.4l-1,1.4
	c-1.6,2.1-4,3.4-6.7,3.4c-4.6,0-8.3-3.7-8.3-8.3s3.7-8.3,8.3-8.3h3.3l4.4,4.4l4.4-4.4h3.3c4.6,0,8.3,3.7,8.3,8.3
	S46.3,61.6,41.7,61.6L41.7,61.6z M60.9,42.7c-0.2,6.9-4,13.2-10.1,16.5c3.3-5,1.9-11.8-3.1-15.1c-1.8-1.2-3.9-1.8-6-1.8H26.3
	c-6,0-10.9,4.9-10.9,10.9c0,2.1,0.6,4.2,1.8,6c-6.1-3.3-9.9-9.6-10.1-16.5l3.8-3.8V27h46.3v12L60.9,42.7z"/>
</svg>
