<svg id="Layer_1" data-name="Layer 1" xmlns="http://www.w3.org/2000/svg" viewBox="0 0 93 86.33"><defs><style>.cls-1{fill:#0078d7;}</style></defs><title>outlook</title><path class="cls-1" d="M51.95,39.33V89.69L0,80.69V12.58L51.95,3.36ZM24.84,62.08a9.17,9.17,0,0,0,5.27-1.48,11.8,11.8,0,0,0,3.54-3.75,17.21,17.21,0,0,0,2-5,23,23,0,0,0,0-10.65,16.33,16.33,0,0,0-2-4.9,11,11,0,0,0-3.5-3.59A9.51,9.51,0,0,0,25,31.29a10.35,10.35,0,0,0-5.52,1.41,11.59,11.59,0,0,0-3.75,3.68,16.18,16.18,0,0,0-2.11,5.09A24.44,24.44,0,0,0,12.94,47a22,22,0,0,0,.68,5.45,15.38,15.38,0,0,0,2.11,4.81,11.08,11.08,0,0,0,3.7,3.45A10.59,10.59,0,0,0,24.84,62.08Zm-.68-25a4.69,4.69,0,0,1,3.09,1,6.64,6.64,0,0,1,1.84,2.45A11.49,11.49,0,0,1,30,43.66a24.28,24.28,0,0,1,.23,3.2A21.28,21.28,0,0,1,29.95,50a10.34,10.34,0,0,1-.93,3,6.33,6.33,0,0,1-1.88,2.29,5,5,0,0,1-3.11.91,4.17,4.17,0,0,1-2.86-1,7.14,7.14,0,0,1-1.79-2.45,11.73,11.73,0,0,1-.91-3.11,20.15,20.15,0,0,1-.25-3,19.17,19.17,0,0,1,.27-3,12.69,12.69,0,0,1,.93-3.16,7,7,0,0,1,1.82-2.47A4.32,4.32,0,0,1,24.16,37.05Zm40.28,9.22-7.63-5.9V20.8h33a3,3,0,0,1,2.11.82,3.13,3.13,0,0,1,1,2Zm0,4.4a2.35,2.35,0,0,0,1.5-.5L93,28.65v40.6a3,3,0,0,1-.93,2.23,3.1,3.1,0,0,1-2.25.91h-33V45.46l6.13,4.72A2.35,2.35,0,0,0,64.44,50.68Z" transform="translate(0 -3.36)"/></svg>