<?xml version="1.0" encoding="utf-8"?>
<!-- Generator: Adobe Illustrator 21.0.0, SVG Export Plug-In . SVG Version: 6.00 Build 0)  -->
<svg version="1.1" id="Layer_1" xmlns="http://www.w3.org/2000/svg" xmlns:xlink="http://www.w3.org/1999/xlink" x="0px" y="0px"
	 viewBox="0 0 70 70" style="enable-background:new 0 0 70 70;" xml:space="preserve">
<style type="text/css">
	.st0{fill:#1D99D6;}
</style>
<g>
	<g>
		<g>
			<path class="st0" d="M49.4,49.8L6.3,46.4l7.2-27.1l44.3-1.2L49.4,49.8 M64.9,11.7c0,0-0.1,0-0.1,0l-53.5,2.6
				c-0.7,0-1.4,0.7-1.7,1.5l-9,34c-0.2,0.8,0.1,1.5,0.8,1.6l51.5,5.2c0.1,0,0.1,0,0.2,0c0.9,0,1.9-0.7,2.1-1.6l11.1-41.5
				C66.4,12.4,65.8,11.7,64.9,11.7"/>
		</g>
		<polygon class="st0" points="69.4,53.3 61.2,52.6 65.9,35 		"/>
	</g>
</g>
</svg>
