<?xml version="1.0" encoding="utf-8"?>
<!-- Generator: Adobe Illustrator 21.0.0, SVG Export Plug-In . SVG Version: 6.00 Build 0)  -->
<svg version="1.1" id="Layer_1" xmlns="http://www.w3.org/2000/svg" xmlns:xlink="http://www.w3.org/1999/xlink" x="0px" y="0px"
	 viewBox="0 0 70 70" style="enable-background:new 0 0 70 70;" xml:space="preserve">
<style type="text/css">
	.st0{fill:#0078D7;}
</style>
<g>
	<path class="st0" d="M25.7,35.7h-21V10.3h51.7v9.8c1.2,0.5,2.2,1,3.1,1.4c0.5,0.2,0.9,0.5,1.3,0.7V5.8H0.2v34.4h25.5V35.7z"/>
</g>
<path class="st0" d="M49.8,66l-1-0.5c-0.8-0.4-18.7-9.2-18.7-24.6V27.6h2.2c5.7,0,7.8-1.1,9.9-2.2c1.9-1,3.8-2,7.6-2s5.7,1,7.6,2
	c2,1.1,4.1,2.2,9.9,2.2h2.2v13.3c0,15.4-17.9,24.3-18.7,24.6L49.8,66z M48.8,61.6L48.8,61.6L48.8,61.6z M34.6,32v8.9
	c0,10.8,11.7,18.2,15.2,20.1c3.5-2,15.2-9.3,15.2-20.1V32c-5.3-0.3-7.7-1.6-9.7-2.6c-1.6-0.9-2.8-1.5-5.5-1.5
	c-2.7,0-3.9,0.6-5.5,1.5C42.3,30.4,39.9,31.7,34.6,32z"/>
</svg>
