<svg id="LOGO" xmlns="http://www.w3.org/2000/svg" viewBox="0 0 654.87 144"><defs><style>.cls-1{fill:#0078d4;}</style></defs><title>windows</title><path class="cls-1" d="M298.82,28.94l-24.29,86H262.72L245,52a40.8,40.8,0,0,1-1.32-8.69h-.24a55,55,0,0,1-1.62,8.57L224,115H212.34l-25.14-86h11l18.3,66a51.55,51.55,0,0,1,1.5,8.63h.23a43.67,43.67,0,0,1,1.81-8.63l19.07-66h9.72L267,95.4a48,48,0,0,1,1.43,8h.25a54.41,54.41,0,0,1,1.61-8.22l17.58-66.22Z"/><path class="cls-1" d="M318.34,33.33a6.08,6.08,0,0,1-1.92,4.59,6.69,6.69,0,0,1-9.12,0,6.11,6.11,0,0,1-1.84-4.64,6.33,6.33,0,0,1,6.4-6.36,6.27,6.27,0,0,1,4.62,1.86A6.17,6.17,0,0,1,318.34,33.33ZM316.66,115h-9.84V53.53h9.84Z"/><path class="cls-1" d="M382.53,115h-9.84v-35q0-19.48-14.27-19.49a15.63,15.63,0,0,0-12.15,5.49q-4.89,5.49-4.88,14v35h-9.84V53.53h9.84v10.2h.24Q348.53,52,361.78,52q10.14,0,15.44,6.6t5.31,18.71Z"/><path class="cls-1" d="M450.79,115H441V104.51h-.24c-4.57,8-11.59,11.94-21.12,11.94q-11.62,0-18.53-8.37t-6.89-22.33q0-15.25,7.64-24.48C406.93,55.11,413.74,52,422.3,52q12.61,0,18.42,10H441V24h9.83ZM441,87.18V78.13a17.12,17.12,0,0,0-5.07-12.66,16.82,16.82,0,0,0-12.33-5A17.08,17.08,0,0,0,409.47,67c-3.48,4.37-5.21,10.45-5.21,18.2q0,10.56,4.91,16.71a16.09,16.09,0,0,0,13.27,6.14,17,17,0,0,0,13.3-5.87Q441,96.29,441,87.18Z"/><path class="cls-1" d="M523.42,84q0,14.63-8.31,23.53t-22.28,8.91q-13.62,0-21.74-8.67T463,85q0-15.22,8.34-24.08t23-8.85q13.67,0,21.41,8.55T523.42,84Zm-10.08.35q0-11.56-5.13-17.75t-14.66-6.18c-6.33,0-11.31,2.11-15,6.33S473,76.93,473,84.6q0,11,5.56,17.25t15,6.2q9.6,0,14.69-6.11T513.34,84.36Z"/><path class="cls-1" d="M613,53.53,594.55,115h-10.2L571.68,71a32.77,32.77,0,0,1-1-5.63h-.23a27.61,27.61,0,0,1-1.25,5.52L555.5,115h-9.83L527.13,53.53h10.31L550.1,99.71a33.92,33.92,0,0,1,.83,5.52h.48a25.63,25.63,0,0,1,1.14-5.63l14.1-46.07h9l12.77,46.31a31.15,31.15,0,0,1,.84,5.51h.49a20.6,20.6,0,0,1,1-5.51l12.53-46.31Z"/><path class="cls-1" d="M654.87,98.52a15.87,15.87,0,0,1-6.15,13q-6.15,5-16.34,5a30.23,30.23,0,0,1-15.23-3.72V102.18a24.73,24.73,0,0,0,16,5.87q11.68,0,11.69-8.57a7.51,7.51,0,0,0-2.28-5.67c-1.51-1.46-5-3.43-10.37-5.91q-8.16-3.48-11.52-7.47t-3.36-10.58a15.88,15.88,0,0,1,6.13-12.72Q629.5,52,638.91,52a29.47,29.47,0,0,1,13.14,2.88v9.9a23,23,0,0,0-13.92-4.38,12,12,0,0,0-7.82,2.4,7.59,7.59,0,0,0-3,6.18,8.25,8.25,0,0,0,2.28,6.27c1.52,1.46,4.66,3.18,9.41,5.19q8.76,3.7,12.3,7.79A15,15,0,0,1,654.87,98.52Z"/><polygon class="cls-1" points="64.26 70.25 144 70.25 144 0 64.26 11.14 64.26 70.25"/><polygon class="cls-1" points="60.95 70.25 60.95 11.6 0 20.12 0 70.25 60.95 70.25"/><polygon class="cls-1" points="60.95 73.58 0 73.58 0 123.9 60.95 132.41 60.95 73.58"/><polygon class="cls-1" points="64.26 73.58 64.26 132.87 144 144 144 73.58 64.26 73.58"/></svg>